<?xml version="1.0" encoding="utf-8"?>
<!-- Generator: Adobe Illustrator 16.0.0, SVG Export Plug-In . SVG Version: 6.00 Build 0)  -->
<!DOCTYPE svg PUBLIC "-//W3C//DTD SVG 1.1//EN" "http://www.w3.org/Graphics/SVG/1.1/DTD/svg11.dtd">
<svg version="1.1" xmlns="http://www.w3.org/2000/svg" xmlns:xlink="http://www.w3.org/1999/xlink" x="0px" y="0px" width="612px"
	 height="576px" viewBox="0 0 612 576" enable-background="new 0 0 612 576" xml:space="preserve">
<g id="bg" display="none">
	<linearGradient id="SVGID_1_" gradientUnits="userSpaceOnUse" x1="0" y1="288" x2="612" y2="288">
		<stop  offset="0" style="stop-color:#3D3D3D"/>
		<stop  offset="0.5091" style="stop-color:#505050"/>
		<stop  offset="1" style="stop-color:#3E3E3E"/>
	</linearGradient>
	<rect display="inline" fill="url(#SVGID_1_)" width="612" height="576"/>
</g>
<g id="Layer_12">
</g>
<g id="Layer_4">
</g>
<g id="Layer_3">
	<g display="none">
		<path display="inline" d="M296.379,481.16l-22.564,1.677c-13.926,1.037-19.808-13.151-16.625-29.292
			c0,0,27.489-72.361,38.062-98.588c10.573-26.224-2.41-32.505-2.41-32.505l-1.73,0.132c-1.521,0.109-2.927-0.717-3.854-2.061
			c0,0-45.678,149.291-103.495,167.992C275.92,490.132,292.607,482.998,296.379,481.16z"/>
		<path display="inline" d="M343.619,481.16l22.564,1.677c13.926,1.037,19.808-13.151,16.624-29.292
			c0,0-27.489-72.361-38.062-98.588c-10.574-26.224,2.41-32.505,2.41-32.505l1.73,0.132c1.521,0.109,2.927-0.717,3.854-2.061
			c0,0,45.676,149.291,103.495,167.992C364.08,490.132,347.392,482.998,343.619,481.16z"/>
	</g>
	<g>
		<path d="M268.787,183.064c12.297-30.499,4.52-43.99-0.515-49.029h-7.229c-9.475,22.675-72.979,204.85-151.366,252.625v8.675
			c93.786,1.534,117.09,0.96,122.841,0.539V386.1c-20.481-0.003-29.015-21.838-24.139-46.568
			C208.379,339.531,252.007,224.688,268.787,183.064z"/>
		<path d="M343.213,183.064c-12.299-30.499-4.521-43.99,0.514-49.029h7.23c9.475,22.675,72.979,204.85,151.366,252.625v8.675
			c-93.787,1.534-117.092,0.96-122.842,0.539V386.1c20.479-0.003,29.015-21.838,24.138-46.568
			C403.619,339.531,359.993,224.688,343.213,183.064z"/>
	</g>
</g>
<g id="Layer_6">
</g>
<g id="Layer_5">
	<g>
		<path fill="#48A770" d="M329.229,222.571l-2.303-3.791h-40.143l-2.302,3.791c-15.097,24.807-56.402,93.313-68.288,113.604
			l47.885,0.028v0.048h82.169v-0.003l50.51,0.027C384.857,315.975,344.348,247.378,329.229,222.571z M337.353,310.026
			l-12.687,15.113h-40.375v-34.309l-6.729-5.85l6.729-5.846v-34.86h39.163l13.127,15.223v16.219l-7.501,8.604l8.273,8.825V310.026z"
			/>
	</g>
</g>
<g id="Layer_7">
</g>
<g id="Layer_8">
</g>
<g id="Layer_9" display="none">
	<text transform="matrix(1 0 0 1 122.9233 277.5)" display="inline" font-family="'Haymaker'" font-size="53">Bundle Labs</text>
</g>
<g id="Layer_10" display="none">
	<path display="inline" d="M332.715,389.553l-1.414-2.33H306.64l-1.413,2.33c-2.417,3.969-5.931,9.771-9.929,16.391h-0.002
		c-11.346,18.779-26.621,44.184-32.021,53.402l110.927,0.061C366.891,446.932,342.005,404.793,332.715,389.553z M336.188,421.465
		c-2.304,2.016-5.245,3.686-8.82,5.004c-1.633,0.604-3.368,1.062-5.195,1.39c1.505,0.339,2.813,0.806,3.899,1.419
		c2.424,1.367,3.924,3.084,4.5,5.148s0.324,4.297-0.756,6.695c-1.08,2.4-2.868,4.633-5.364,6.697
		c-2.496,2.062-5.604,3.779-9.323,5.146c-3.721,1.369-7.909,2.053-12.564,2.053c-5.137,0-9.097-0.564-11.88-1.691
		c-2.784-1.129-4.669-2.533-5.651-4.213c-0.984-1.68-1.225-3.492-0.721-5.436s1.5-3.744,2.988-5.4
		c1.486-1.656,3.299-3.012,5.436-4.068c2.135-1.055,4.356-1.535,6.66-1.439c-0.625,0.48-1.356,1.332-2.195,2.557
		c-0.841,1.223-1.584,2.604-2.232,4.139c-0.648,1.537-1.105,3.133-1.368,4.789c-0.265,1.656-0.133,3.156,0.396,4.5
		s1.56,2.459,3.097,3.348c1.535,0.887,3.768,1.332,6.696,1.332c2.16,0,4.223-0.611,6.191-1.836c1.968-1.225,3.719-2.748,5.256-4.572
		c1.535-1.824,2.783-3.803,3.744-5.939c0.959-2.137,1.5-4.115,1.62-5.941c0.119-1.822-0.265-3.348-1.151-4.57
		c-0.795-1.094-2.079-1.695-3.848-1.812l-8.43,17.256l-11.303,1.584l19.871-40.68l11.305-1.584l-10.521,21.536
		c1.57-0.144,3.156-0.692,4.761-1.7c1.872-1.176,3.575-2.664,5.112-4.465c1.536-1.799,2.796-3.73,3.78-5.795
		c0.983-2.064,1.487-3.996,1.512-5.797c0.023-1.799-0.517-3.287-1.62-4.463c-1.104-1.176-2.977-1.766-5.616-1.766
		c-2.928,0-5.521,0.518-7.775,1.549c-2.257,1.033-4.212,2.34-5.868,3.924s-3.037,3.324-4.141,5.221s-1.955,3.721-2.556,5.471
		c-0.601,1.754-0.984,3.312-1.151,4.682c-0.169,1.367-0.133,2.291,0.107,2.771c-2.352,0.096-4.176-0.457-5.472-1.656
		s-2.005-2.725-2.124-4.572c-0.121-1.848,0.359-3.863,1.439-6.049c1.08-2.184,2.809-4.211,5.185-6.084
		c2.376-1.871,5.411-3.443,9.108-4.715c3.695-1.271,8.111-1.908,13.247-1.908c4.848,0,8.615,0.66,11.305,1.98
		c2.688,1.32,4.438,2.988,5.256,5.004c0.815,2.016,0.792,4.176-0.072,6.48C340.075,417.289,338.491,419.449,336.188,421.465z
		 M340.948,445.107v-3.055c0.083,0.498,0.136,1.006,0.136,1.527S341.031,444.609,340.948,445.107z"/>
</g>
<g id="Layer_11" display="none">
	<text transform="matrix(1 0 0 1 136.7334 544.5)" display="inline" font-family="'LighthousePersonalUse'" font-size="72">Bundles Lab</text>
</g>
</svg>
