<?xml version="1.0" encoding="utf-8"?>
<!-- Generator: Adobe Illustrator 16.0.0, SVG Export Plug-In . SVG Version: 6.00 Build 0)  -->
<!DOCTYPE svg PUBLIC "-//W3C//DTD SVG 1.1//EN" "http://www.w3.org/Graphics/SVG/1.1/DTD/svg11.dtd">
<svg version="1.1" id="Layer_1" xmlns="http://www.w3.org/2000/svg" xmlns:xlink="http://www.w3.org/1999/xlink" x="0px" y="0px"
	 width="612px" height="576px" viewBox="0 0 612 576" enable-background="new 0 0 612 576" xml:space="preserve">
<g id="Layer_3">
	<g display="none">
		<path display="inline" d="M296.379,481.16l-22.564,1.677c-13.926,1.037-19.808-13.151-16.625-29.292
			c0,0,27.489-72.361,38.062-98.588c10.573-26.224-2.41-32.505-2.41-32.505l-1.73,0.132c-1.521,0.109-2.927-0.717-3.854-2.061
			c0,0-45.678,149.291-103.495,167.991C275.92,490.132,292.607,482.998,296.379,481.16z"/>
		<path display="inline" d="M343.619,481.16l22.564,1.677c13.926,1.037,19.808-13.151,16.623-29.292
			c0,0-27.488-72.361-38.062-98.588c-10.574-26.224,2.409-32.505,2.409-32.505l1.73,0.132c1.521,0.109,2.928-0.717,3.854-2.061
			c0,0,45.677,149.291,103.496,167.991C364.08,490.132,347.393,482.998,343.619,481.16z"/>
	</g>
	<g>
		<path d="M268.787,183.064c12.297-30.499,4.52-43.99-0.515-49.029h-7.229c-9.475,22.675-72.979,204.85-151.366,252.625v8.675
			c93.786,1.534,117.09,0.96,122.841,0.539V386.1c-20.481-0.003-29.015-21.838-24.139-46.567
			C208.379,339.531,252.007,224.688,268.787,183.064z"/>
		<path d="M343.213,183.064c-12.299-30.499-4.521-43.99,0.514-49.029h7.23c9.475,22.675,72.979,204.85,151.366,252.625v8.675
			c-93.787,1.534-117.093,0.96-122.843,0.539V386.1c20.479-0.003,29.016-21.838,24.139-46.567
			C403.619,339.531,359.993,224.688,343.213,183.064z"/>
	</g>
</g>
<g id="Layer_5">
	<g>
		<path fill="#48A770" d="M329.229,222.571l-2.303-3.791h-40.143l-2.302,3.791c-15.097,24.807-56.402,93.313-68.288,113.604
			l47.885,0.028v0.048h82.169v-0.003l50.51,0.027C384.857,315.975,344.348,247.378,329.229,222.571z M337.354,310.026
			l-12.688,15.112h-40.375V290.83l-6.729-5.85l6.729-5.846v-34.86h39.163l13.127,15.223v16.219l-7.501,8.604l8.273,8.825V310.026z"
			/>
	</g>
</g>
</svg>
